PathFileType	4	(X/Y/Z)	Patient4_TMGait_0pt3_01_left_15.trc.trc
DataRate	CameraRate	NumFrames	NumMarkers	Units	OrigDataRate	OrigDataStartFrame	OrigNumFrames
54.474708171206	54.474708171206	7	33	mm	54.474708171206	36	       141
Frame#	Time	Sacral			L.Shoulder			Chest			R.Shoulder			Neck			R.ASIS			L.ASIS			R.Thigh.Superior			R.Thigh.Lateral			R.Thigh.Inferior			R.Patella			L.Thigh.Superior			L.Thigh.Lateral			L.Thigh.Inferior			L.Patella			L.Shank.Superior			L.Shank.Lateral			L.Shank.Inferior			R.Shank.Superior			R.Shank.Lateral			R.Shank.Inferior			R.Heel			R.Midfoot.Superior			R.Midfoot.Lateral			R.Toe			L.Heel			L.Midfoot.Lateral			L.Midfoot.Superior			L.Toe			L.Elbow			L.Wrist			R.Elbow			R.Wrist			
		X1	Y1	Z1	X2	Y2	Z2	X3	Y3	Z3	X4	Y4	Z4	X5	Y5	Z5	X6	Y6	Z6	X7	Y7	Z7	X8	Y8	Z8	X9	Y9	Z9	X10	Y10	Z10	X11	Y11	Z11	X12	Y12	Z12	X13	Y13	Z13	X14	Y14	Z14	X15	Y15	Z15	X16	Y16	Z16	X17	Y17	Z17	X18	Y18	Z18	X19	Y19	Z19	X20	Y20	Z20	X21	Y21	Z21	X22	Y22	Z22	X23	Y23	Z23	X24	Y24	Z24	X25	Y25	Z25	X26	Y26	Z26	X27	Y27	Z27	X28	Y28	Z28	X29	Y29	Z29	X30	Y30	Z30	X31	Y31	Z31	X32	Y32	Z32	X33	Y33	Z33	

36	28.452500000000	754.879501032121	996.461680042787	557.931166050892	885.929482228234	1417.281882634029	343.523117070332	1020.055341220333	1354.401774611082	483.139842515536	971.654821507819	1434.225941219448	666.349551365234	903.596968739391	1484.697395449495	497.269835445134	995.391573148239	927.829014304633	644.231267700457	948.196427999190	953.613016471702	373.131996151820	988.830166415112	714.247459059910	616.699141193888	885.937625781513	618.387354885629	680.334225124814	944.976842841580	553.040180479021	598.783637221766	921.847909673287	460.747441175728	606.011037456520	1029.929383975113	764.251104520422	409.737581206764	968.479606219945	633.962953972758	342.470420329996	1068.195467972327	572.320047614233	404.178924293676	1081.253372327304	500.479881609356	408.217104772019	1057.640208911764	425.370053196122	398.385264140976	975.004650837953	307.478647433819	343.704396556392	1034.829449759191	196.821723027215	408.373119010413	865.633765406467	383.677651020049	613.524325090192	765.955162193247	305.700869231488	675.805164954418	778.875359485677	202.879444778329	614.428014461742	608.034770715984	63.154465747272	578.686657247138	779.770288511683	97.922806127151	624.480555752275	684.494602737452	46.641324983994	658.223152122841	891.694014633484	37.650906047769	664.548606151587	914.132965834688	37.996486111148	444.386391736876	988.313216656555	36.303873487875	363.882260197935	1071.130780282205	97.625880058078	391.260359768043	1199.109061139649	47.653774214245	362.137188590927	765.359075518593	1079.429777226430	267.760055267607	811.201882389502	821.497947913786	282.811187954285	1143.642848060469	1139.294484829876	769.941950080563	1378.898873730293	1193.212307825078	687.500507103681	
37	28.470857142857	756.186187636794	997.256193440089	552.605800751364	887.864984009254	1418.277578270343	339.402332921359	1021.242246569385	1355.541864152817	479.787357105597	971.624951363910	1435.263945025959	662.724404085270	904.294382260235	1485.673646074878	493.271884084850	996.304364483394	928.631430929192	640.508535686096	950.790969282948	954.435534831721	369.172494337723	989.905403499377	714.986936353596	614.070985288435	886.927847346808	619.326406226883	677.770502110201	946.833534426648	553.406668806025	597.197909261687	923.717715784855	460.273702636006	605.475149807501	1031.450238042593	764.038611247333	406.367356740414	969.137429795274	633.887051560954	339.788973030467	1068.049820752815	571.649320498734	402.103762754792	1080.622326432829	499.732683519250	406.687262346254	1056.314257415348	424.593317098143	397.172667026572	972.832918724151	307.309140143134	342.717473025997	1030.862847401080	196.326777017800	408.126790155353	865.852108518466	384.185557785308	612.936097048962	764.462399206173	308.280323287537	674.991266630667	776.408559976622	204.617508690363	614.625651138390	603.468608613635	67.477421370191	579.177630424619	775.959012309148	98.740619524192	625.088613881425	679.698619635609	48.901233595532	658.503106271764	886.562443958357	37.362876761170	664.546495613065	908.720312953479	37.998250123764	444.377645970597	982.897870003805	36.386015899955	363.880850958129	1065.797078850566	97.551515443966	391.396885821438	1193.789415501361	47.316352385986	362.135536728305	770.678555763268	1079.093226913027	262.058631390914	825.362904758173	822.748999489677	274.489521005666	1142.025370418005	1138.648078944236	766.111335733666	1380.561678448621	1183.246893464348	686.474349539768	
38	28.489214285714	757.380701770514	998.027009442231	547.227332176773	889.944474905127	1419.316268043948	335.274921730003	1022.381011877377	1356.708822869210	476.588650264412	971.349980516926	1436.353656576564	659.177764799294	904.939512402448	1486.699355677647	489.239326825545	997.083472779436	929.528956278508	636.826500376650	953.329171216965	955.278144964306	365.223126406790	991.330185435641	715.874219191280	611.471322104494	888.538761235050	620.210339181467	675.253136335046	949.511995208788	553.818665863243	595.699731419860	926.549646662001	459.700581734852	605.178802268100	1032.736365713032	763.668835467242	402.743619736106	969.273249977751	633.745184949184	337.035116952821	1067.411192796087	570.872811561871	399.823087856861	1079.462363176557	498.932923379818	404.958543921633	1054.498465027905	423.809412448724	395.798874194616	970.218603266403	307.049783582027	341.684638009804	1026.689325370656	195.843611991560	407.777747058630	866.909057012192	384.664833449522	612.510859402149	763.641305981416	311.045538095754	674.213760303456	774.466334330068	206.515737655008	614.909882604795	599.153016431169	72.411456957791	579.724752016306	772.456364761845	99.613555712126	625.773334762133	675.053112733496	51.520732328312	658.830459942890	881.461823810776	37.119594590820	664.522970433908	903.271367124811	37.988825085525	444.382378559963	977.440097579464	36.426759626415	363.879958010649	1060.421116685109	97.456351661310	391.480423598682	1188.428624290536	46.937992396971	362.115339982496	776.575516374447	1078.851966368496	255.765179151187	839.898023032116	824.378741742506	265.825166159048	1139.543328235449	1137.720244287713	762.625468540258	1381.278460117218	1171.925639721975	686.397644481883	
39	28.507571428571	758.465794138535	998.728087662427	541.843997226818	892.104972635485	1420.361794670971	331.177424341615	1023.440676869331	1357.868690377889	473.544985014368	970.840749804179	1437.449800694003	655.723836672543	905.523334915935	1487.730077654591	485.211458679041	997.738981947642	930.476051305825	633.167291161915	955.770855648101	956.129518675323	361.280940437104	993.162274636674	716.874622650693	608.856862001684	890.871555307975	620.984001246481	672.759713809215	953.094976678227	554.248232138806	594.224399846709	930.439588233388	459.011342037623	605.050374057261	1033.811247472658	763.175989107955	398.896007461106	968.963905670847	633.549901692061	334.222495951289	1066.360877907057	570.019340565619	397.350938869347	1077.849213093684	498.100436544658	403.054464004896	1052.273901815741	423.025481573382	394.282687382178	967.239905567887	306.718445625281	340.592051083484	1022.354353218016	195.373802656720	407.340452720591	868.913576495052	385.080185575806	612.192874379966	763.630640937890	313.978773246334	673.442772020405	773.143714309228	208.577678180588	615.237413475900	595.190969030054	78.050244111414	580.302837387220	769.308189150726	100.553618650166	626.515908972117	670.614433772935	54.592915472375	659.190074947873	876.377555983654	36.905199704992	664.482060141583	897.790062332218	37.972787906300	444.391694987680	971.946263817634	36.433216990444	363.872927414859	1055.011120153283	97.342130285152	391.515763715998	1183.031347429645	46.531791591467	362.080621789389	783.172714458598	1078.657154009218	248.867169189656	854.824068458581	826.304078146990	256.928575939495	1136.104658592759	1136.431810982434	759.531172853450	1380.788484396483	1159.202902826788	687.297067312614	
40	28.525928571429	759.445442214832	999.315668964037	536.491913054145	894.283704529435	1421.382542866185	327.147404701416	1024.389839100182	1358.990174750858	470.658891253842	970.103315319465	1438.502514668468	652.380111844524	906.035991433740	1488.722193730808	481.235614238737	998.278281115992	931.427936350986	629.516507998979	958.089032327161	956.974221036803	357.347211898693	995.456893242693	717.960150958735	606.195140461042	894.015125520042	621.605890345139	670.266357638816	957.653675930905	554.681034689565	592.706979606336	935.469385465988	458.209761637253	605.000801051602	1034.703489264814	762.589618883860	394.887374982602	968.318159804733	633.311405640693	331.372419093338	1064.997331186019	569.115136182474	394.739020970325	1075.882586958728	497.250259267416	401.027339326007	1049.738702299725	422.245060725648	392.664734645972	963.991433601479	306.334548966686	339.444224942632	1017.906232231649	194.917356294357	406.842963318762	871.966613995094	385.413007833423	611.914233035075	764.570700651587	317.072991502370	672.641184335733	772.542886411735	210.822920039325	615.555872950531	591.720602363814	84.514809974041	580.868205970480	766.567244237231	101.590946945501	627.290755981889	666.459043648308	58.242436595042	659.553308159564	871.287896080227	36.691070315794	664.432114957802	892.283786429478	37.953129364346	444.399161395132	966.425926634284	36.415318311555	363.856887757354	1049.576431642199	97.215186972269	391.513498319668	1177.604658537199	46.116239247843	362.036396428546	790.560557193337	1078.478640369495	241.395387593776	870.162599400417	828.455668887283	247.915779283165	1131.634319302454	1134.721866970293	756.861814608977	1378.836095218526	1145.067095535667	689.163465181707	
41	28.544285714286	760.321289626289	999.750924639366	531.194466402305	896.424542480486	1422.352568856320	323.220971137058	1025.199262790851	1360.044884880118	467.935539641146	969.137852909050	1439.459872343319	649.166918528114	906.466557166081	1489.635360260629	477.362677322578	998.704461682758	932.344065775236	625.864650641892	960.267899349894	957.792975211644	353.427691943101	998.262919869324	719.114230777498	603.463479772918	898.043718341907	622.053376733807	667.748989291772	963.245123849369	555.120942221958	591.085539046099	941.705020141125	457.321835969657	604.928780052527	1035.444252745474	761.933902803812	390.804811941143	967.462051497749	633.036118901764	328.512720631522	1063.426830792316	568.182146980063	392.067062279637	1073.675585785421	496.390849666110	398.949367866688	1046.997751283227	421.466859990398	391.000188645048	960.572043918954	305.916322488844	338.261761475720	1013.390781524900	194.471613702019	406.321227364427	876.158067256271	385.665705257265	611.598631508619	766.595982224272	320.335375677495	671.765050013004	772.769671604559	213.288757817080	615.806255124606	588.914599838451	91.946306471557	581.354825501931	764.292592569982	102.776682111868	628.064292488900	662.684079504189	62.621302424963	659.874893937183	866.165153095509	36.438336381774	664.385604289135	886.761349541060	37.931771842337	444.400949337478	960.889706012796	36.383648840334	363.832366013477	1044.126712620976	97.083553334593	391.487795370852	1172.156765271126	45.708435163550	361.988104483745	798.787996264936	1078.307656192658	233.425026649676	885.934656857181	830.787094353253	238.904723755034	1126.078073169167	1132.552891660896	754.631172115261	1375.181248349947	1129.544031201449	691.950827263336	
42	28.562642857143	761.091409366484	1000.001920937685	525.963619695384	898.482444320295	1423.251755261661	319.431248616289	1025.844079281141	1361.007317170814	465.383458846108	967.939390421086	1440.270600658266	646.106739470887	906.803181534804	1490.434529604667	473.641241471752	999.015851102683	933.190446721260	622.207663424927	962.300533295171	958.563937883090	349.532089346071	1001.616856101888	720.334652173592	600.644642049734	903.012980593993	622.326230883709	665.184342967006	969.905613865680	555.592215458477	589.302401012850	949.192302148544	456.395338232083	604.727869699155	1036.066253244502	761.228282992231	386.746638295408	966.523625171838	632.725789345188	325.675538460603	1061.755588968761	567.237069066198	389.428351632400	1071.345576776585	495.523755479373	396.900698698582	1044.154499698411	420.684423561899	389.349653605865	957.075093569337	305.479007493827	337.076138829235	1008.847783007615	194.030929370716	405.812592217014	881.560706348767	385.863323252466	611.165783945944	769.824680995831	323.788985056511	670.764297459194	773.927034162240	216.028648709445	615.925666979384	586.973657677961	100.490123811762	581.672104616875	762.547766472578	104.182412681037	628.793628632490	659.405235432577	67.896959191275	660.090668242437	860.979690154165	36.103200812441	664.357938152895	881.231366883565	37.910152243654	444.395519716267	955.347627921152	36.347822915877	363.802345974257	1038.671167208668	96.954835289100	391.453913697190	1166.695928649182	45.320169386419	361.940998152559	807.859579761842	1078.155366140760	225.070613186080	902.157159117029	833.279651095060	230.011176275363	1119.405040839620	1129.912280663939	752.829687403756	1369.609022816314	1112.696942290016	695.578329917313	
